<svg xmlns="http://www.w3.org/2000/svg" viewBox="0 0 261 43.97"><defs><style>.cls-1{fill:#ff4e05;}</style></defs><g id="Layer_2" data-name="Layer 2"><g id="Layer_1-2" data-name="Layer 1"><path class="cls-1" d="M86.37,6.07h5.8V26a2.29,2.29,0,0,0,.73,1.24,2.35,2.35,0,0,0,1.54.61h9.29c0,1.82,0,3.64,0,5.46-6-.06-10-.09-11.63,0A6.43,6.43,0,0,1,91,33.21a5.56,5.56,0,0,1-3.16-1.85,5.83,5.83,0,0,1-1.45-3.52C86.37,20.6,86.37,13.31,86.37,6.07Z"/><path class="cls-1" d="M82.82,6c-3,0-6,0-9,0a13.84,13.84,0,0,0-5.24,1.22,14.15,14.15,0,0,0-5.4,4.18,13.27,13.27,0,0,0-2.8,7.69,13.51,13.51,0,0,0,2.8,8.63,14,14,0,0,0,11.23,5.42h8.43V27.72h-9A8.8,8.8,0,0,1,68,24.81a8.24,8.24,0,0,1-1.94-5.91,8.34,8.34,0,0,1,2.8-5.43,9.17,9.17,0,0,1,4-1.91c1.32-.32,2-.19,4.81-.16,1.22,0,3,0,5.17,0C82.82,9.61,82.82,7.79,82.82,6Z"/><path class="cls-1" d="M119,27.72a8.27,8.27,0,0,1-8.3-8.5,8.32,8.32,0,0,1,16.61.45A8.28,8.28,0,0,1,119,27.72ZM118.82,6a13.94,13.94,0,0,0-14,12.87c-.43,7.63,6,14.34,14,14.34,7.61,0,14-6.1,14-13.61A13.91,13.91,0,0,0,118.82,6Z"/><path class="cls-1" d="M223.74,27.72a8.27,8.27,0,0,1-8.3-8.5,8.32,8.32,0,0,1,16.6.45A8.22,8.22,0,0,1,223.74,27.72ZM223.64,6a13.94,13.94,0,0,0-14,12.87c-.43,7.63,6,14.34,14,14.34,7.61,0,14-6.1,14-13.61A13.9,13.9,0,0,0,223.64,6Z"/><path class="cls-1" d="M179.7,25.45a6.4,6.4,0,0,1-4,1.5H169V12h7a6.45,6.45,0,0,1,2.07.51,7.84,7.84,0,0,1,1.52.92,8.09,8.09,0,0,1,2.83,6.3A8,8,0,0,1,179.7,25.45Zm3.1-16.86a14.54,14.54,0,0,0-2.38-1.5c-.42-.19-.89-.38-1.41-.58A14,14,0,0,0,176.7,6c-4.41,0-8.79,0-13.21,0V33.24h12.19a11.88,11.88,0,0,0,7.38-2.78A14.5,14.5,0,0,0,188,20.08,14.82,14.82,0,0,0,182.8,8.59Z"/><path class="cls-1" d="M135.56,6c1.91,0,3.85,0,5.76,0,0,4.7,0,7.06,0,8.34,0,.09,0,.35,0,.73,0,.16,0,2.33.06,4.18a15.23,15.23,0,0,0,.53,4.28A7.18,7.18,0,0,0,148,27.78a7.11,7.11,0,0,0,6.39-3.93c.33-.67.43-1.28.53-4.28.06-2.49,0-4.56,0-6V6c1.91,0,3.82,0,5.7,0,0,4.31-.07,8.62-.1,12.9a15,15,0,0,1-1.12,6.36,13.67,13.67,0,0,1-3.73,5.1,11.72,11.72,0,0,1-14.33.77,14,14,0,0,1-4.64-5.65,15.28,15.28,0,0,1-1.05-3.74,18.72,18.72,0,0,1-.17-2.42c0-1.22,0-2.91,0-4.95C135.56,11.56,135.56,8.78,135.56,6Z"/><path class="cls-1" d="M190.11,33.24h6.19V13.31a2.17,2.17,0,0,1,.79-1.24,2.65,2.65,0,0,1,1.68-.61h3.66l6.22-.09c0-1.79-.06-3.58-.06-5.4L196.37,6h-.23a4.25,4.25,0,0,0-1,.1A5.94,5.94,0,0,0,191.76,8a5.71,5.71,0,0,0-1.55,3.51C190.11,18.71,190.11,26,190.11,33.24Z"/><path class="cls-1" d="M204.21,22.29c-2.67,0-5.34,0-8,0V16.86c2.64,0,5.31-.07,7.94-.07C204.14,18.62,204.17,20.47,204.21,22.29Z"/><path class="cls-1" d="M261,6.07H254l-5.57,8.11-4.64-6.9a2.76,2.76,0,0,0-.83-.8,2.65,2.65,0,0,0-1.44-.41h-5.74c3.13,4.53,6.23,9.06,9.36,13.6l-9.36,13.6h7.05l5.57-8.11c1.65,2.43,3.26,4.85,4.91,7.28a1.54,1.54,0,0,0,.59.61,1.46,1.46,0,0,0,.92.19H261c-3.13-4.53-6.23-9.07-9.36-13.6Z"/><path class="cls-1" d="M44.87,0,27.24,9.48c-2.93,0-5.89,0-8.83-.06Q9.57,4.72.79,0C2.21,5.94,3.59,11.88,5,17.82q8.9,12.45,17.82,24.93,8.9-12.45,17.75-24.93C42,11.88,43.45,5.94,44.87,0Z"/><path class="cls-1" d="M4.22,19C2.8,22.54,1.42,26.09,0,29.66Q11,36.8,22,43.9Z"/><path class="cls-1" d="M41.28,19c1.41,3.57,2.83,7.18,4.25,10.76q-11,7.12-22,14.24C29.42,35.67,35.35,27.3,41.28,19Z"/></g></g></svg>